<mxfile host="app.diagrams.net" modified="2022-06-06T06:46:57.695Z" agent="5.0 (Windows NT 6.1; Win64; x64) AppleWebKit/537.36 (KHTML, like Gecko) Chrome/100.0.4896.160 YaBrowser/22.5.1.985 Yowser/2.5 Safari/537.36" etag="DMk4vYx4Efn53Rj9Rm0T" version="18.2.1" type="github">
  <diagram id="TSH7O4gPTwGRGqxWe-S4" name="Page-1">
    <mxGraphModel dx="3038" dy="1894" grid="1" gridSize="10" guides="1" tooltips="1" connect="1" arrows="1" fold="1" page="1" pageScale="1" pageWidth="827" pageHeight="1169" math="0" shadow="0">
      <root>
        <mxCell id="0" />
        <mxCell id="1" parent="0" />
        <mxCell id="zCBPnrUUQAufrPVJ40XC-1" value="Промо страница&lt;br&gt;Я.Самоката" style="rounded=1;whiteSpace=wrap;html=1;" vertex="1" parent="1">
          <mxGeometry x="-1650" y="570" width="120" height="60" as="geometry" />
        </mxCell>
        <mxCell id="zCBPnrUUQAufrPVJ40XC-2" value="Верхний блок" style="rounded=1;whiteSpace=wrap;html=1;" vertex="1" parent="1">
          <mxGeometry x="-1480" y="-20" width="120" height="60" as="geometry" />
        </mxCell>
        <mxCell id="zCBPnrUUQAufrPVJ40XC-3" value="Форма предзаказа" style="rounded=1;whiteSpace=wrap;html=1;" vertex="1" parent="1">
          <mxGeometry x="-1470" y="570" width="120" height="60" as="geometry" />
        </mxCell>
        <mxCell id="zCBPnrUUQAufrPVJ40XC-4" value="Нижний блок" style="rounded=1;whiteSpace=wrap;html=1;" vertex="1" parent="1">
          <mxGeometry x="-1385" y="1820" width="120" height="60" as="geometry" />
        </mxCell>
        <mxCell id="zCBPnrUUQAufrPVJ40XC-5" value="" style="endArrow=none;html=1;rounded=0;" edge="1" parent="1">
          <mxGeometry width="50" height="50" relative="1" as="geometry">
            <mxPoint x="-1500" y="880" as="sourcePoint" />
            <mxPoint x="-1500" y="274.3999938964844" as="targetPoint" />
            <Array as="points">
              <mxPoint x="-1500" y="600" />
            </Array>
          </mxGeometry>
        </mxCell>
        <mxCell id="zCBPnrUUQAufrPVJ40XC-6" value="" style="endArrow=classic;html=1;rounded=0;entryX=0;entryY=0.5;entryDx=0;entryDy=0;" edge="1" parent="1" target="zCBPnrUUQAufrPVJ40XC-4">
          <mxGeometry width="50" height="50" relative="1" as="geometry">
            <mxPoint x="-1500" y="880" as="sourcePoint" />
            <mxPoint x="-1190" y="770" as="targetPoint" />
          </mxGeometry>
        </mxCell>
        <mxCell id="zCBPnrUUQAufrPVJ40XC-7" value="" style="endArrow=classic;html=1;rounded=0;entryX=0;entryY=0.5;entryDx=0;entryDy=0;" edge="1" parent="1" target="zCBPnrUUQAufrPVJ40XC-3">
          <mxGeometry width="50" height="50" relative="1" as="geometry">
            <mxPoint x="-1500" y="600" as="sourcePoint" />
            <mxPoint x="-1190" y="770" as="targetPoint" />
          </mxGeometry>
        </mxCell>
        <mxCell id="zCBPnrUUQAufrPVJ40XC-8" value="" style="endArrow=classic;html=1;rounded=0;entryX=0;entryY=0.5;entryDx=0;entryDy=0;" edge="1" parent="1" target="zCBPnrUUQAufrPVJ40XC-2">
          <mxGeometry width="50" height="50" relative="1" as="geometry">
            <mxPoint x="-1500" y="280" as="sourcePoint" />
            <mxPoint x="-1190" y="270" as="targetPoint" />
          </mxGeometry>
        </mxCell>
        <mxCell id="zCBPnrUUQAufrPVJ40XC-9" value="" style="endArrow=none;html=1;rounded=0;exitX=1;exitY=0.5;exitDx=0;exitDy=0;" edge="1" parent="1" source="zCBPnrUUQAufrPVJ40XC-1">
          <mxGeometry width="50" height="50" relative="1" as="geometry">
            <mxPoint x="-1240" y="520" as="sourcePoint" />
            <mxPoint x="-1500" y="600" as="targetPoint" />
          </mxGeometry>
        </mxCell>
        <mxCell id="zCBPnrUUQAufrPVJ40XC-10" value="Счетчик количества подписавшихся человек" style="rounded=1;whiteSpace=wrap;html=1;" vertex="1" parent="1">
          <mxGeometry x="-1330" y="290" width="120" height="60" as="geometry" />
        </mxCell>
        <mxCell id="zCBPnrUUQAufrPVJ40XC-11" value="поля формы" style="rounded=1;whiteSpace=wrap;html=1;" vertex="1" parent="1">
          <mxGeometry x="-1330" y="570" width="120" height="60" as="geometry" />
        </mxCell>
        <mxCell id="zCBPnrUUQAufrPVJ40XC-12" value="Кнопка Заказать" style="rounded=1;whiteSpace=wrap;html=1;" vertex="1" parent="1">
          <mxGeometry x="-1280" y="1490" width="120" height="60" as="geometry" />
        </mxCell>
        <mxCell id="zCBPnrUUQAufrPVJ40XC-13" value="" style="endArrow=classic;html=1;rounded=0;exitX=1;exitY=0.5;exitDx=0;exitDy=0;entryX=0;entryY=0.5;entryDx=0;entryDy=0;" edge="1" parent="1" source="zCBPnrUUQAufrPVJ40XC-3" target="zCBPnrUUQAufrPVJ40XC-11">
          <mxGeometry width="50" height="50" relative="1" as="geometry">
            <mxPoint x="-1240" y="710" as="sourcePoint" />
            <mxPoint x="-1190" y="660" as="targetPoint" />
          </mxGeometry>
        </mxCell>
        <mxCell id="zCBPnrUUQAufrPVJ40XC-14" value="" style="endArrow=classic;html=1;rounded=0;entryX=0;entryY=0.5;entryDx=0;entryDy=0;exitX=1;exitY=0.5;exitDx=0;exitDy=0;" edge="1" parent="1" source="zCBPnrUUQAufrPVJ40XC-3" target="zCBPnrUUQAufrPVJ40XC-12">
          <mxGeometry width="50" height="50" relative="1" as="geometry">
            <mxPoint x="-1240" y="710" as="sourcePoint" />
            <mxPoint x="-1190" y="660" as="targetPoint" />
          </mxGeometry>
        </mxCell>
        <mxCell id="zCBPnrUUQAufrPVJ40XC-15" value="" style="endArrow=classic;html=1;rounded=0;entryX=0;entryY=0.5;entryDx=0;entryDy=0;" edge="1" parent="1" target="zCBPnrUUQAufrPVJ40XC-10">
          <mxGeometry width="50" height="50" relative="1" as="geometry">
            <mxPoint x="-1350" y="610" as="sourcePoint" />
            <mxPoint x="-1190" y="660" as="targetPoint" />
          </mxGeometry>
        </mxCell>
        <mxCell id="zCBPnrUUQAufrPVJ40XC-16" value="Имя" style="rounded=1;whiteSpace=wrap;html=1;" vertex="1" parent="1">
          <mxGeometry x="-1190" y="350" width="90" height="40" as="geometry" />
        </mxCell>
        <mxCell id="zCBPnrUUQAufrPVJ40XC-17" value="Фамилия" style="rounded=1;whiteSpace=wrap;html=1;" vertex="1" parent="1">
          <mxGeometry x="-1190" y="470" width="100" height="40" as="geometry" />
        </mxCell>
        <mxCell id="zCBPnrUUQAufrPVJ40XC-18" value="Отчество" style="rounded=1;whiteSpace=wrap;html=1;" vertex="1" parent="1">
          <mxGeometry x="-1180" y="660" width="100" height="45" as="geometry" />
        </mxCell>
        <mxCell id="zCBPnrUUQAufrPVJ40XC-19" value="E-mail" style="rounded=1;whiteSpace=wrap;html=1;" vertex="1" parent="1">
          <mxGeometry x="-1180" y="875" width="100" height="40" as="geometry" />
        </mxCell>
        <mxCell id="zCBPnrUUQAufrPVJ40XC-20" value="Номер телефона" style="rounded=1;whiteSpace=wrap;html=1;" vertex="1" parent="1">
          <mxGeometry x="-1180" y="1250" width="100" height="40" as="geometry" />
        </mxCell>
        <mxCell id="zCBPnrUUQAufrPVJ40XC-21" value="" style="endArrow=classic;html=1;rounded=0;entryX=0;entryY=0.5;entryDx=0;entryDy=0;exitX=1;exitY=0.5;exitDx=0;exitDy=0;" edge="1" parent="1" source="zCBPnrUUQAufrPVJ40XC-11" target="zCBPnrUUQAufrPVJ40XC-20">
          <mxGeometry width="50" height="50" relative="1" as="geometry">
            <mxPoint x="-1240" y="810" as="sourcePoint" />
            <mxPoint x="-1190" y="760" as="targetPoint" />
          </mxGeometry>
        </mxCell>
        <mxCell id="zCBPnrUUQAufrPVJ40XC-22" value="" style="endArrow=classic;html=1;rounded=0;entryX=0;entryY=0.5;entryDx=0;entryDy=0;" edge="1" parent="1" target="zCBPnrUUQAufrPVJ40XC-19">
          <mxGeometry width="50" height="50" relative="1" as="geometry">
            <mxPoint x="-1210" y="600" as="sourcePoint" />
            <mxPoint x="-1190" y="760" as="targetPoint" />
          </mxGeometry>
        </mxCell>
        <mxCell id="zCBPnrUUQAufrPVJ40XC-23" value="" style="endArrow=classic;html=1;rounded=0;entryX=0;entryY=0.5;entryDx=0;entryDy=0;" edge="1" parent="1" target="zCBPnrUUQAufrPVJ40XC-18">
          <mxGeometry width="50" height="50" relative="1" as="geometry">
            <mxPoint x="-1210" y="600" as="sourcePoint" />
            <mxPoint x="-1190" y="760" as="targetPoint" />
          </mxGeometry>
        </mxCell>
        <mxCell id="zCBPnrUUQAufrPVJ40XC-24" value="" style="endArrow=classic;html=1;rounded=0;entryX=0;entryY=0.5;entryDx=0;entryDy=0;" edge="1" parent="1" target="zCBPnrUUQAufrPVJ40XC-16">
          <mxGeometry width="50" height="50" relative="1" as="geometry">
            <mxPoint x="-1210" y="600" as="sourcePoint" />
            <mxPoint x="-1190" y="760" as="targetPoint" />
          </mxGeometry>
        </mxCell>
        <mxCell id="zCBPnrUUQAufrPVJ40XC-25" value="" style="endArrow=classic;html=1;rounded=0;entryX=0;entryY=0.5;entryDx=0;entryDy=0;exitX=1;exitY=0.5;exitDx=0;exitDy=0;" edge="1" parent="1" source="zCBPnrUUQAufrPVJ40XC-11" target="zCBPnrUUQAufrPVJ40XC-17">
          <mxGeometry width="50" height="50" relative="1" as="geometry">
            <mxPoint x="-1240" y="610" as="sourcePoint" />
            <mxPoint x="-1190" y="560" as="targetPoint" />
          </mxGeometry>
        </mxCell>
        <mxCell id="zCBPnrUUQAufrPVJ40XC-27" value="Буквы русского алфавита" style="rounded=1;whiteSpace=wrap;html=1;" vertex="1" parent="1">
          <mxGeometry x="-1060" y="170" width="100" height="50" as="geometry" />
        </mxCell>
        <mxCell id="zCBPnrUUQAufrPVJ40XC-28" value="Буквы английского алфавита" style="rounded=1;whiteSpace=wrap;html=1;" vertex="1" parent="1">
          <mxGeometry x="-1060" y="250" width="100" height="50" as="geometry" />
        </mxCell>
        <mxCell id="zCBPnrUUQAufrPVJ40XC-29" value="Количество символов" style="rounded=1;whiteSpace=wrap;html=1;" vertex="1" parent="1">
          <mxGeometry x="-1060" y="330" width="100" height="50" as="geometry" />
        </mxCell>
        <mxCell id="zCBPnrUUQAufrPVJ40XC-30" value="от 2 до 25" style="rounded=1;whiteSpace=wrap;html=1;" vertex="1" parent="1">
          <mxGeometry x="-900" y="340" width="70" height="50" as="geometry" />
        </mxCell>
        <mxCell id="zCBPnrUUQAufrPVJ40XC-31" value="" style="endArrow=classic;html=1;rounded=0;entryX=0;entryY=0.5;entryDx=0;entryDy=0;exitX=1;exitY=0.5;exitDx=0;exitDy=0;" edge="1" parent="1" source="zCBPnrUUQAufrPVJ40XC-16" target="zCBPnrUUQAufrPVJ40XC-28">
          <mxGeometry width="50" height="50" relative="1" as="geometry">
            <mxPoint x="-1240" y="390" as="sourcePoint" />
            <mxPoint x="-1190" y="340" as="targetPoint" />
          </mxGeometry>
        </mxCell>
        <mxCell id="zCBPnrUUQAufrPVJ40XC-32" value="" style="endArrow=classic;html=1;rounded=0;entryX=0;entryY=0.5;entryDx=0;entryDy=0;exitX=1;exitY=0.5;exitDx=0;exitDy=0;" edge="1" parent="1" source="zCBPnrUUQAufrPVJ40XC-16" target="zCBPnrUUQAufrPVJ40XC-29">
          <mxGeometry width="50" height="50" relative="1" as="geometry">
            <mxPoint x="-1240" y="390" as="sourcePoint" />
            <mxPoint x="-1190" y="340" as="targetPoint" />
          </mxGeometry>
        </mxCell>
        <mxCell id="zCBPnrUUQAufrPVJ40XC-33" value="" style="endArrow=classic;html=1;rounded=0;entryX=0;entryY=0.5;entryDx=0;entryDy=0;exitX=1;exitY=0.5;exitDx=0;exitDy=0;" edge="1" parent="1" source="zCBPnrUUQAufrPVJ40XC-16" target="zCBPnrUUQAufrPVJ40XC-27">
          <mxGeometry width="50" height="50" relative="1" as="geometry">
            <mxPoint x="-1240" y="390" as="sourcePoint" />
            <mxPoint x="-1190" y="340" as="targetPoint" />
          </mxGeometry>
        </mxCell>
        <mxCell id="zCBPnrUUQAufrPVJ40XC-34" value="больше 25" style="rounded=1;whiteSpace=wrap;html=1;" vertex="1" parent="1">
          <mxGeometry x="-900" y="400" width="70" height="40" as="geometry" />
        </mxCell>
        <mxCell id="zCBPnrUUQAufrPVJ40XC-35" value="меньше 2" style="rounded=1;whiteSpace=wrap;html=1;" vertex="1" parent="1">
          <mxGeometry x="-897" y="290" width="70" height="40" as="geometry" />
        </mxCell>
        <mxCell id="zCBPnrUUQAufrPVJ40XC-36" value="" style="endArrow=classic;html=1;rounded=0;entryX=0;entryY=0.5;entryDx=0;entryDy=0;exitX=1;exitY=0.5;exitDx=0;exitDy=0;" edge="1" parent="1" source="zCBPnrUUQAufrPVJ40XC-29" target="zCBPnrUUQAufrPVJ40XC-35">
          <mxGeometry width="50" height="50" relative="1" as="geometry">
            <mxPoint x="-1240" y="390" as="sourcePoint" />
            <mxPoint x="-1190" y="340" as="targetPoint" />
          </mxGeometry>
        </mxCell>
        <mxCell id="zCBPnrUUQAufrPVJ40XC-37" value="" style="endArrow=classic;html=1;rounded=0;entryX=0;entryY=0.5;entryDx=0;entryDy=0;exitX=1;exitY=0.5;exitDx=0;exitDy=0;" edge="1" parent="1" source="zCBPnrUUQAufrPVJ40XC-29" target="zCBPnrUUQAufrPVJ40XC-30">
          <mxGeometry width="50" height="50" relative="1" as="geometry">
            <mxPoint x="-1240" y="390" as="sourcePoint" />
            <mxPoint x="-1190" y="340" as="targetPoint" />
          </mxGeometry>
        </mxCell>
        <mxCell id="zCBPnrUUQAufrPVJ40XC-38" value="" style="endArrow=classic;html=1;rounded=0;entryX=0;entryY=0.5;entryDx=0;entryDy=0;exitX=1;exitY=0.5;exitDx=0;exitDy=0;" edge="1" parent="1" source="zCBPnrUUQAufrPVJ40XC-29" target="zCBPnrUUQAufrPVJ40XC-34">
          <mxGeometry width="50" height="50" relative="1" as="geometry">
            <mxPoint x="-1240" y="390" as="sourcePoint" />
            <mxPoint x="-1190" y="340" as="targetPoint" />
          </mxGeometry>
        </mxCell>
        <mxCell id="zCBPnrUUQAufrPVJ40XC-39" value="меньше 2" style="rounded=1;whiteSpace=wrap;html=1;" vertex="1" parent="1">
          <mxGeometry x="-900" y="450" width="70" height="40" as="geometry" />
        </mxCell>
        <mxCell id="zCBPnrUUQAufrPVJ40XC-40" value="от 2 до 25" style="rounded=1;whiteSpace=wrap;html=1;" vertex="1" parent="1">
          <mxGeometry x="-900" y="550" width="70" height="50" as="geometry" />
        </mxCell>
        <mxCell id="zCBPnrUUQAufrPVJ40XC-41" value="больше 25" style="rounded=1;whiteSpace=wrap;html=1;" vertex="1" parent="1">
          <mxGeometry x="-900" y="500" width="70" height="40" as="geometry" />
        </mxCell>
        <mxCell id="zCBPnrUUQAufrPVJ40XC-42" value="Буквы русского алфавита" style="rounded=1;whiteSpace=wrap;html=1;" vertex="1" parent="1">
          <mxGeometry x="-1060" y="400" width="100" height="50" as="geometry" />
        </mxCell>
        <mxCell id="zCBPnrUUQAufrPVJ40XC-43" value="Буквы английского алфавита" style="rounded=1;whiteSpace=wrap;html=1;" vertex="1" parent="1">
          <mxGeometry x="-1060" y="460" width="100" height="50" as="geometry" />
        </mxCell>
        <mxCell id="zCBPnrUUQAufrPVJ40XC-44" value="Количество символов" style="rounded=1;whiteSpace=wrap;html=1;" vertex="1" parent="1">
          <mxGeometry x="-1060" y="520" width="100" height="50" as="geometry" />
        </mxCell>
        <mxCell id="zCBPnrUUQAufrPVJ40XC-45" value="" style="endArrow=classic;html=1;rounded=0;entryX=0;entryY=0.5;entryDx=0;entryDy=0;exitX=1;exitY=0.5;exitDx=0;exitDy=0;" edge="1" parent="1" source="zCBPnrUUQAufrPVJ40XC-17" target="zCBPnrUUQAufrPVJ40XC-42">
          <mxGeometry width="50" height="50" relative="1" as="geometry">
            <mxPoint x="-1240" y="490" as="sourcePoint" />
            <mxPoint x="-1190" y="440" as="targetPoint" />
          </mxGeometry>
        </mxCell>
        <mxCell id="zCBPnrUUQAufrPVJ40XC-46" value="" style="endArrow=classic;html=1;rounded=0;entryX=0;entryY=0.5;entryDx=0;entryDy=0;exitX=1;exitY=0.5;exitDx=0;exitDy=0;" edge="1" parent="1" source="zCBPnrUUQAufrPVJ40XC-17" target="zCBPnrUUQAufrPVJ40XC-43">
          <mxGeometry width="50" height="50" relative="1" as="geometry">
            <mxPoint x="-1240" y="490" as="sourcePoint" />
            <mxPoint x="-1190" y="440" as="targetPoint" />
          </mxGeometry>
        </mxCell>
        <mxCell id="zCBPnrUUQAufrPVJ40XC-47" value="" style="endArrow=classic;html=1;rounded=0;entryX=0;entryY=0.5;entryDx=0;entryDy=0;exitX=1;exitY=0.5;exitDx=0;exitDy=0;" edge="1" parent="1" source="zCBPnrUUQAufrPVJ40XC-17" target="zCBPnrUUQAufrPVJ40XC-44">
          <mxGeometry width="50" height="50" relative="1" as="geometry">
            <mxPoint x="-1240" y="490" as="sourcePoint" />
            <mxPoint x="-1190" y="440" as="targetPoint" />
          </mxGeometry>
        </mxCell>
        <mxCell id="zCBPnrUUQAufrPVJ40XC-48" value="" style="endArrow=classic;html=1;rounded=0;entryX=0;entryY=0.5;entryDx=0;entryDy=0;exitX=1;exitY=0.5;exitDx=0;exitDy=0;" edge="1" parent="1" source="zCBPnrUUQAufrPVJ40XC-44" target="zCBPnrUUQAufrPVJ40XC-39">
          <mxGeometry width="50" height="50" relative="1" as="geometry">
            <mxPoint x="-1240" y="490" as="sourcePoint" />
            <mxPoint x="-1190" y="440" as="targetPoint" />
          </mxGeometry>
        </mxCell>
        <mxCell id="zCBPnrUUQAufrPVJ40XC-49" value="" style="endArrow=classic;html=1;rounded=0;entryX=0;entryY=0.5;entryDx=0;entryDy=0;exitX=1;exitY=0.5;exitDx=0;exitDy=0;" edge="1" parent="1" source="zCBPnrUUQAufrPVJ40XC-44" target="zCBPnrUUQAufrPVJ40XC-41">
          <mxGeometry width="50" height="50" relative="1" as="geometry">
            <mxPoint x="-1240" y="490" as="sourcePoint" />
            <mxPoint x="-1190" y="440" as="targetPoint" />
          </mxGeometry>
        </mxCell>
        <mxCell id="zCBPnrUUQAufrPVJ40XC-50" value="" style="endArrow=classic;html=1;rounded=0;entryX=0;entryY=0.5;entryDx=0;entryDy=0;exitX=1;exitY=0.5;exitDx=0;exitDy=0;" edge="1" parent="1" source="zCBPnrUUQAufrPVJ40XC-44" target="zCBPnrUUQAufrPVJ40XC-40">
          <mxGeometry width="50" height="50" relative="1" as="geometry">
            <mxPoint x="-1240" y="490" as="sourcePoint" />
            <mxPoint x="-1190" y="440" as="targetPoint" />
          </mxGeometry>
        </mxCell>
        <mxCell id="zCBPnrUUQAufrPVJ40XC-51" value="Буквы русского алфавита" style="rounded=1;whiteSpace=wrap;html=1;" vertex="1" parent="1">
          <mxGeometry x="-1060" y="600" width="100" height="50" as="geometry" />
        </mxCell>
        <mxCell id="zCBPnrUUQAufrPVJ40XC-52" value="Буквы английского алфавита" style="rounded=1;whiteSpace=wrap;html=1;" vertex="1" parent="1">
          <mxGeometry x="-1060" y="655" width="100" height="50" as="geometry" />
        </mxCell>
        <mxCell id="zCBPnrUUQAufrPVJ40XC-53" value="Количество символов" style="rounded=1;whiteSpace=wrap;html=1;" vertex="1" parent="1">
          <mxGeometry x="-1060" y="710" width="100" height="50" as="geometry" />
        </mxCell>
        <mxCell id="zCBPnrUUQAufrPVJ40XC-55" value="меньше 2" style="rounded=1;whiteSpace=wrap;html=1;" vertex="1" parent="1">
          <mxGeometry x="-900" y="640" width="70" height="40" as="geometry" />
        </mxCell>
        <mxCell id="zCBPnrUUQAufrPVJ40XC-56" value="больше 25" style="rounded=1;whiteSpace=wrap;html=1;" vertex="1" parent="1">
          <mxGeometry x="-900" y="690" width="70" height="35" as="geometry" />
        </mxCell>
        <mxCell id="zCBPnrUUQAufrPVJ40XC-57" value="от 2 до 25" style="rounded=1;whiteSpace=wrap;html=1;" vertex="1" parent="1">
          <mxGeometry x="-900" y="735" width="70" height="50" as="geometry" />
        </mxCell>
        <mxCell id="zCBPnrUUQAufrPVJ40XC-58" value="" style="endArrow=classic;html=1;rounded=0;entryX=0;entryY=0.5;entryDx=0;entryDy=0;exitX=1;exitY=0.5;exitDx=0;exitDy=0;" edge="1" parent="1" source="zCBPnrUUQAufrPVJ40XC-18" target="zCBPnrUUQAufrPVJ40XC-51">
          <mxGeometry width="50" height="50" relative="1" as="geometry">
            <mxPoint x="-1240" y="690" as="sourcePoint" />
            <mxPoint x="-1190" y="640" as="targetPoint" />
          </mxGeometry>
        </mxCell>
        <mxCell id="zCBPnrUUQAufrPVJ40XC-59" value="" style="endArrow=classic;html=1;rounded=0;entryX=0;entryY=0.5;entryDx=0;entryDy=0;exitX=1;exitY=0.5;exitDx=0;exitDy=0;" edge="1" parent="1" source="zCBPnrUUQAufrPVJ40XC-18" target="zCBPnrUUQAufrPVJ40XC-52">
          <mxGeometry width="50" height="50" relative="1" as="geometry">
            <mxPoint x="-1240" y="690" as="sourcePoint" />
            <mxPoint x="-1190" y="640" as="targetPoint" />
          </mxGeometry>
        </mxCell>
        <mxCell id="zCBPnrUUQAufrPVJ40XC-60" value="" style="endArrow=classic;html=1;rounded=0;entryX=0;entryY=0.5;entryDx=0;entryDy=0;exitX=1;exitY=0.5;exitDx=0;exitDy=0;" edge="1" parent="1" source="zCBPnrUUQAufrPVJ40XC-18" target="zCBPnrUUQAufrPVJ40XC-53">
          <mxGeometry width="50" height="50" relative="1" as="geometry">
            <mxPoint x="-1240" y="690" as="sourcePoint" />
            <mxPoint x="-1190" y="640" as="targetPoint" />
          </mxGeometry>
        </mxCell>
        <mxCell id="zCBPnrUUQAufrPVJ40XC-61" value="" style="endArrow=classic;html=1;rounded=0;entryX=0;entryY=0.5;entryDx=0;entryDy=0;exitX=1;exitY=0.5;exitDx=0;exitDy=0;" edge="1" parent="1" source="zCBPnrUUQAufrPVJ40XC-53" target="zCBPnrUUQAufrPVJ40XC-55">
          <mxGeometry width="50" height="50" relative="1" as="geometry">
            <mxPoint x="-1240" y="690" as="sourcePoint" />
            <mxPoint x="-1190" y="640" as="targetPoint" />
          </mxGeometry>
        </mxCell>
        <mxCell id="zCBPnrUUQAufrPVJ40XC-62" value="" style="endArrow=classic;html=1;rounded=0;entryX=0;entryY=0.5;entryDx=0;entryDy=0;exitX=1;exitY=0.5;exitDx=0;exitDy=0;" edge="1" parent="1" source="zCBPnrUUQAufrPVJ40XC-53" target="zCBPnrUUQAufrPVJ40XC-56">
          <mxGeometry width="50" height="50" relative="1" as="geometry">
            <mxPoint x="-1240" y="690" as="sourcePoint" />
            <mxPoint x="-1190" y="640" as="targetPoint" />
          </mxGeometry>
        </mxCell>
        <mxCell id="zCBPnrUUQAufrPVJ40XC-63" value="" style="endArrow=classic;html=1;rounded=0;entryX=0;entryY=0.5;entryDx=0;entryDy=0;exitX=1;exitY=0.5;exitDx=0;exitDy=0;" edge="1" parent="1" source="zCBPnrUUQAufrPVJ40XC-53" target="zCBPnrUUQAufrPVJ40XC-57">
          <mxGeometry width="50" height="50" relative="1" as="geometry">
            <mxPoint x="-1240" y="690" as="sourcePoint" />
            <mxPoint x="-1190" y="640" as="targetPoint" />
          </mxGeometry>
        </mxCell>
        <mxCell id="zCBPnrUUQAufrPVJ40XC-64" value="Количество символов" style="rounded=1;whiteSpace=wrap;html=1;" vertex="1" parent="1">
          <mxGeometry x="-1050" y="875" width="100" height="50" as="geometry" />
        </mxCell>
        <mxCell id="zCBPnrUUQAufrPVJ40XC-65" value="Количество символов" style="rounded=1;whiteSpace=wrap;html=1;" vertex="1" parent="1">
          <mxGeometry x="-1055" y="1150" width="100" height="50" as="geometry" />
        </mxCell>
        <mxCell id="zCBPnrUUQAufrPVJ40XC-66" value="Буквы английского алфавита" style="rounded=1;whiteSpace=wrap;html=1;" vertex="1" parent="1">
          <mxGeometry x="-1050" y="810" width="100" height="50" as="geometry" />
        </mxCell>
        <mxCell id="zCBPnrUUQAufrPVJ40XC-68" value="Знаки" style="rounded=1;whiteSpace=wrap;html=1;" vertex="1" parent="1">
          <mxGeometry x="-1050" y="990" width="100" height="40" as="geometry" />
        </mxCell>
        <mxCell id="zCBPnrUUQAufrPVJ40XC-69" value="" style="endArrow=classic;html=1;rounded=0;entryX=0;entryY=0.5;entryDx=0;entryDy=0;exitX=1;exitY=0.5;exitDx=0;exitDy=0;" edge="1" parent="1" source="zCBPnrUUQAufrPVJ40XC-19" target="zCBPnrUUQAufrPVJ40XC-66">
          <mxGeometry width="50" height="50" relative="1" as="geometry">
            <mxPoint x="-1240" y="890" as="sourcePoint" />
            <mxPoint x="-1190" y="840" as="targetPoint" />
          </mxGeometry>
        </mxCell>
        <mxCell id="zCBPnrUUQAufrPVJ40XC-70" value="" style="endArrow=classic;html=1;rounded=0;entryX=0;entryY=0.5;entryDx=0;entryDy=0;" edge="1" parent="1" target="zCBPnrUUQAufrPVJ40XC-64">
          <mxGeometry width="50" height="50" relative="1" as="geometry">
            <mxPoint x="-1080" y="900" as="sourcePoint" />
            <mxPoint x="-1190" y="840" as="targetPoint" />
          </mxGeometry>
        </mxCell>
        <mxCell id="zCBPnrUUQAufrPVJ40XC-72" value="" style="endArrow=classic;html=1;rounded=0;entryX=0;entryY=0.5;entryDx=0;entryDy=0;exitX=1;exitY=0.75;exitDx=0;exitDy=0;" edge="1" parent="1" source="zCBPnrUUQAufrPVJ40XC-19" target="zCBPnrUUQAufrPVJ40XC-68">
          <mxGeometry width="50" height="50" relative="1" as="geometry">
            <mxPoint x="-1240" y="890" as="sourcePoint" />
            <mxPoint x="-1190" y="840" as="targetPoint" />
          </mxGeometry>
        </mxCell>
        <mxCell id="zCBPnrUUQAufrPVJ40XC-73" value="меньше 5" style="rounded=1;whiteSpace=wrap;html=1;" vertex="1" parent="1">
          <mxGeometry x="-900" y="830" width="70" height="40" as="geometry" />
        </mxCell>
        <mxCell id="zCBPnrUUQAufrPVJ40XC-74" value="больше 50" style="rounded=1;whiteSpace=wrap;html=1;" vertex="1" parent="1">
          <mxGeometry x="-900" y="880" width="70" height="35" as="geometry" />
        </mxCell>
        <mxCell id="zCBPnrUUQAufrPVJ40XC-75" value="от 5 до 50" style="rounded=1;whiteSpace=wrap;html=1;" vertex="1" parent="1">
          <mxGeometry x="-900" y="925" width="70" height="50" as="geometry" />
        </mxCell>
        <mxCell id="zCBPnrUUQAufrPVJ40XC-76" value="" style="endArrow=classic;html=1;rounded=0;entryX=0;entryY=0.75;entryDx=0;entryDy=0;exitX=1;exitY=0.5;exitDx=0;exitDy=0;" edge="1" parent="1" source="zCBPnrUUQAufrPVJ40XC-64" target="zCBPnrUUQAufrPVJ40XC-73">
          <mxGeometry width="50" height="50" relative="1" as="geometry">
            <mxPoint x="-1240" y="890" as="sourcePoint" />
            <mxPoint x="-1190" y="840" as="targetPoint" />
          </mxGeometry>
        </mxCell>
        <mxCell id="zCBPnrUUQAufrPVJ40XC-77" value="" style="endArrow=classic;html=1;rounded=0;exitX=1;exitY=0.5;exitDx=0;exitDy=0;" edge="1" parent="1" source="zCBPnrUUQAufrPVJ40XC-64" target="zCBPnrUUQAufrPVJ40XC-74">
          <mxGeometry width="50" height="50" relative="1" as="geometry">
            <mxPoint x="-1240" y="890" as="sourcePoint" />
            <mxPoint x="-1190" y="840" as="targetPoint" />
          </mxGeometry>
        </mxCell>
        <mxCell id="zCBPnrUUQAufrPVJ40XC-78" value="" style="endArrow=classic;html=1;rounded=0;entryX=0;entryY=0.5;entryDx=0;entryDy=0;exitX=1;exitY=0.5;exitDx=0;exitDy=0;" edge="1" parent="1" source="zCBPnrUUQAufrPVJ40XC-64" target="zCBPnrUUQAufrPVJ40XC-75">
          <mxGeometry width="50" height="50" relative="1" as="geometry">
            <mxPoint x="-1240" y="890" as="sourcePoint" />
            <mxPoint x="-1190" y="840" as="targetPoint" />
          </mxGeometry>
        </mxCell>
        <mxCell id="zCBPnrUUQAufrPVJ40XC-79" value="тире, точка, @" style="rounded=1;whiteSpace=wrap;html=1;" vertex="1" parent="1">
          <mxGeometry x="-908" y="990" width="92" height="30" as="geometry" />
        </mxCell>
        <mxCell id="zCBPnrUUQAufrPVJ40XC-80" value="все остальные знаки" style="rounded=1;whiteSpace=wrap;html=1;" vertex="1" parent="1">
          <mxGeometry x="-908" y="1040" width="102" height="40" as="geometry" />
        </mxCell>
        <mxCell id="zCBPnrUUQAufrPVJ40XC-83" value="" style="endArrow=classic;html=1;rounded=0;entryX=0;entryY=0.5;entryDx=0;entryDy=0;exitX=1;exitY=0.5;exitDx=0;exitDy=0;" edge="1" parent="1" source="zCBPnrUUQAufrPVJ40XC-68" target="zCBPnrUUQAufrPVJ40XC-79">
          <mxGeometry width="50" height="50" relative="1" as="geometry">
            <mxPoint x="-1240" y="1090" as="sourcePoint" />
            <mxPoint x="-1190" y="1040" as="targetPoint" />
          </mxGeometry>
        </mxCell>
        <mxCell id="zCBPnrUUQAufrPVJ40XC-84" value="" style="endArrow=classic;html=1;rounded=0;entryX=0;entryY=0.5;entryDx=0;entryDy=0;exitX=1;exitY=0.5;exitDx=0;exitDy=0;" edge="1" parent="1" source="zCBPnrUUQAufrPVJ40XC-68" target="zCBPnrUUQAufrPVJ40XC-80">
          <mxGeometry width="50" height="50" relative="1" as="geometry">
            <mxPoint x="-1240" y="1090" as="sourcePoint" />
            <mxPoint x="-1190" y="1040" as="targetPoint" />
          </mxGeometry>
        </mxCell>
        <mxCell id="zCBPnrUUQAufrPVJ40XC-85" value="Цифры" style="rounded=1;whiteSpace=wrap;html=1;" vertex="1" parent="1">
          <mxGeometry x="-1045" y="1060" width="90" height="40" as="geometry" />
        </mxCell>
        <mxCell id="zCBPnrUUQAufrPVJ40XC-86" value="" style="endArrow=classic;html=1;rounded=0;entryX=0;entryY=0.5;entryDx=0;entryDy=0;exitX=1;exitY=0.5;exitDx=0;exitDy=0;" edge="1" parent="1" source="zCBPnrUUQAufrPVJ40XC-19" target="zCBPnrUUQAufrPVJ40XC-85">
          <mxGeometry width="50" height="50" relative="1" as="geometry">
            <mxPoint x="-1240" y="1090" as="sourcePoint" />
            <mxPoint x="-1190" y="1040" as="targetPoint" />
          </mxGeometry>
        </mxCell>
        <mxCell id="zCBPnrUUQAufrPVJ40XC-87" value="Цифры" style="rounded=1;whiteSpace=wrap;html=1;" vertex="1" parent="1">
          <mxGeometry x="-1055" y="1220" width="90" height="40" as="geometry" />
        </mxCell>
        <mxCell id="zCBPnrUUQAufrPVJ40XC-88" value="Знаки" style="rounded=1;whiteSpace=wrap;html=1;" vertex="1" parent="1">
          <mxGeometry x="-1055" y="1280" width="100" height="40" as="geometry" />
        </mxCell>
        <mxCell id="zCBPnrUUQAufrPVJ40XC-89" value="Количество символов" style="rounded=1;whiteSpace=wrap;html=1;" vertex="1" parent="1">
          <mxGeometry x="-1055" y="1340" width="100" height="50" as="geometry" />
        </mxCell>
        <mxCell id="zCBPnrUUQAufrPVJ40XC-90" value="" style="endArrow=classic;html=1;rounded=0;entryX=0;entryY=0.5;entryDx=0;entryDy=0;exitX=1;exitY=0.5;exitDx=0;exitDy=0;" edge="1" parent="1" source="zCBPnrUUQAufrPVJ40XC-20" target="zCBPnrUUQAufrPVJ40XC-65">
          <mxGeometry width="50" height="50" relative="1" as="geometry">
            <mxPoint x="-1240" y="1390" as="sourcePoint" />
            <mxPoint x="-1190" y="1340" as="targetPoint" />
          </mxGeometry>
        </mxCell>
        <mxCell id="zCBPnrUUQAufrPVJ40XC-91" value="" style="endArrow=classic;html=1;rounded=0;entryX=0;entryY=0.5;entryDx=0;entryDy=0;" edge="1" parent="1" target="zCBPnrUUQAufrPVJ40XC-87">
          <mxGeometry width="50" height="50" relative="1" as="geometry">
            <mxPoint x="-1080" y="1270" as="sourcePoint" />
            <mxPoint x="-1190" y="1340" as="targetPoint" />
          </mxGeometry>
        </mxCell>
        <mxCell id="zCBPnrUUQAufrPVJ40XC-92" value="" style="endArrow=classic;html=1;rounded=0;entryX=0;entryY=0.5;entryDx=0;entryDy=0;exitX=1;exitY=0.5;exitDx=0;exitDy=0;" edge="1" parent="1" source="zCBPnrUUQAufrPVJ40XC-20" target="zCBPnrUUQAufrPVJ40XC-88">
          <mxGeometry width="50" height="50" relative="1" as="geometry">
            <mxPoint x="-1240" y="1390" as="sourcePoint" />
            <mxPoint x="-1190" y="1340" as="targetPoint" />
          </mxGeometry>
        </mxCell>
        <mxCell id="zCBPnrUUQAufrPVJ40XC-93" value="меньше 10" style="rounded=1;whiteSpace=wrap;html=1;" vertex="1" parent="1">
          <mxGeometry x="-922" y="1109" width="92" height="31" as="geometry" />
        </mxCell>
        <mxCell id="zCBPnrUUQAufrPVJ40XC-94" value="от 10 до 12" style="rounded=1;whiteSpace=wrap;html=1;" vertex="1" parent="1">
          <mxGeometry x="-922" y="1150" width="87" height="30" as="geometry" />
        </mxCell>
        <mxCell id="zCBPnrUUQAufrPVJ40XC-95" value="больше 12" style="rounded=1;whiteSpace=wrap;html=1;" vertex="1" parent="1">
          <mxGeometry x="-922" y="1200" width="87" height="30" as="geometry" />
        </mxCell>
        <mxCell id="zCBPnrUUQAufrPVJ40XC-96" value="все, кроме +, (, )" style="rounded=1;whiteSpace=wrap;html=1;" vertex="1" parent="1">
          <mxGeometry x="-920.5" y="1310" width="85" height="30" as="geometry" />
        </mxCell>
        <mxCell id="zCBPnrUUQAufrPVJ40XC-97" value="" style="endArrow=classic;html=1;rounded=0;entryX=0;entryY=0.5;entryDx=0;entryDy=0;exitX=1;exitY=0.5;exitDx=0;exitDy=0;" edge="1" parent="1" source="zCBPnrUUQAufrPVJ40XC-65" target="zCBPnrUUQAufrPVJ40XC-93">
          <mxGeometry width="50" height="50" relative="1" as="geometry">
            <mxPoint x="-1240" y="1190" as="sourcePoint" />
            <mxPoint x="-1190" y="1140" as="targetPoint" />
          </mxGeometry>
        </mxCell>
        <mxCell id="zCBPnrUUQAufrPVJ40XC-98" value="" style="endArrow=classic;html=1;rounded=0;entryX=0;entryY=0.5;entryDx=0;entryDy=0;exitX=1;exitY=0.5;exitDx=0;exitDy=0;" edge="1" parent="1" source="zCBPnrUUQAufrPVJ40XC-65" target="zCBPnrUUQAufrPVJ40XC-94">
          <mxGeometry width="50" height="50" relative="1" as="geometry">
            <mxPoint x="-1240" y="1190" as="sourcePoint" />
            <mxPoint x="-1190" y="1140" as="targetPoint" />
          </mxGeometry>
        </mxCell>
        <mxCell id="zCBPnrUUQAufrPVJ40XC-99" value="" style="endArrow=classic;html=1;rounded=0;entryX=0;entryY=0.5;entryDx=0;entryDy=0;exitX=1;exitY=0.5;exitDx=0;exitDy=0;" edge="1" parent="1" source="zCBPnrUUQAufrPVJ40XC-65" target="zCBPnrUUQAufrPVJ40XC-95">
          <mxGeometry width="50" height="50" relative="1" as="geometry">
            <mxPoint x="-1240" y="1190" as="sourcePoint" />
            <mxPoint x="-1190" y="1140" as="targetPoint" />
          </mxGeometry>
        </mxCell>
        <mxCell id="zCBPnrUUQAufrPVJ40XC-100" value="+, (, )" style="rounded=1;whiteSpace=wrap;html=1;" vertex="1" parent="1">
          <mxGeometry x="-921" y="1270" width="86" height="30" as="geometry" />
        </mxCell>
        <mxCell id="zCBPnrUUQAufrPVJ40XC-101" value="" style="endArrow=classic;html=1;rounded=0;entryX=0;entryY=0.5;entryDx=0;entryDy=0;exitX=1;exitY=0.5;exitDx=0;exitDy=0;" edge="1" parent="1" source="zCBPnrUUQAufrPVJ40XC-88" target="zCBPnrUUQAufrPVJ40XC-100">
          <mxGeometry width="50" height="50" relative="1" as="geometry">
            <mxPoint x="-1240" y="1190" as="sourcePoint" />
            <mxPoint x="-1190" y="1140" as="targetPoint" />
          </mxGeometry>
        </mxCell>
        <mxCell id="zCBPnrUUQAufrPVJ40XC-102" value="" style="endArrow=classic;html=1;rounded=0;entryX=0;entryY=0.5;entryDx=0;entryDy=0;exitX=1;exitY=0.5;exitDx=0;exitDy=0;" edge="1" parent="1" source="zCBPnrUUQAufrPVJ40XC-88" target="zCBPnrUUQAufrPVJ40XC-96">
          <mxGeometry width="50" height="50" relative="1" as="geometry">
            <mxPoint x="-1240" y="1190" as="sourcePoint" />
            <mxPoint x="-1190" y="1140" as="targetPoint" />
          </mxGeometry>
        </mxCell>
        <mxCell id="zCBPnrUUQAufrPVJ40XC-103" value="Язык" style="rounded=1;whiteSpace=wrap;html=1;" vertex="1" parent="1">
          <mxGeometry x="-1210" y="1734" width="110" height="40" as="geometry" />
        </mxCell>
        <mxCell id="zCBPnrUUQAufrPVJ40XC-104" value="Обратная связь" style="rounded=1;whiteSpace=wrap;html=1;" vertex="1" parent="1">
          <mxGeometry x="-1210" y="1800" width="110" height="40" as="geometry" />
        </mxCell>
        <mxCell id="zCBPnrUUQAufrPVJ40XC-105" value="Пользовательское соглашение" style="rounded=1;whiteSpace=wrap;html=1;" vertex="1" parent="1">
          <mxGeometry x="-1210" y="1870" width="120" height="40" as="geometry" />
        </mxCell>
        <mxCell id="zCBPnrUUQAufrPVJ40XC-106" value="Яндекс.Движ" style="rounded=1;whiteSpace=wrap;html=1;" vertex="1" parent="1">
          <mxGeometry x="-1210" y="1940" width="120" height="40" as="geometry" />
        </mxCell>
        <mxCell id="zCBPnrUUQAufrPVJ40XC-107" value="" style="endArrow=classic;html=1;rounded=0;exitX=1;exitY=0.5;exitDx=0;exitDy=0;entryX=0;entryY=0.5;entryDx=0;entryDy=0;" edge="1" parent="1" source="zCBPnrUUQAufrPVJ40XC-4" target="zCBPnrUUQAufrPVJ40XC-103">
          <mxGeometry width="50" height="50" relative="1" as="geometry">
            <mxPoint x="-1240" y="1490" as="sourcePoint" />
            <mxPoint x="-1190" y="1440" as="targetPoint" />
          </mxGeometry>
        </mxCell>
        <mxCell id="zCBPnrUUQAufrPVJ40XC-108" value="" style="endArrow=classic;html=1;rounded=0;exitX=1;exitY=0.5;exitDx=0;exitDy=0;entryX=0;entryY=0.5;entryDx=0;entryDy=0;" edge="1" parent="1" source="zCBPnrUUQAufrPVJ40XC-4" target="zCBPnrUUQAufrPVJ40XC-104">
          <mxGeometry width="50" height="50" relative="1" as="geometry">
            <mxPoint x="-1240" y="1490" as="sourcePoint" />
            <mxPoint x="-1190" y="1440" as="targetPoint" />
          </mxGeometry>
        </mxCell>
        <mxCell id="zCBPnrUUQAufrPVJ40XC-111" value="" style="endArrow=classic;html=1;rounded=0;exitX=1;exitY=0.5;exitDx=0;exitDy=0;entryX=0;entryY=0.5;entryDx=0;entryDy=0;" edge="1" parent="1" source="zCBPnrUUQAufrPVJ40XC-4" target="zCBPnrUUQAufrPVJ40XC-105">
          <mxGeometry width="50" height="50" relative="1" as="geometry">
            <mxPoint x="-1240" y="1490" as="sourcePoint" />
            <mxPoint x="-1190" y="1440" as="targetPoint" />
          </mxGeometry>
        </mxCell>
        <mxCell id="zCBPnrUUQAufrPVJ40XC-113" value="" style="endArrow=classic;html=1;rounded=0;exitX=1;exitY=0.5;exitDx=0;exitDy=0;entryX=0;entryY=0.5;entryDx=0;entryDy=0;" edge="1" parent="1" source="zCBPnrUUQAufrPVJ40XC-4" target="zCBPnrUUQAufrPVJ40XC-106">
          <mxGeometry width="50" height="50" relative="1" as="geometry">
            <mxPoint x="-1240" y="1490" as="sourcePoint" />
            <mxPoint x="-1190" y="1440" as="targetPoint" />
          </mxGeometry>
        </mxCell>
        <mxCell id="zCBPnrUUQAufrPVJ40XC-114" value="Счетчик времени до релиза" style="rounded=1;whiteSpace=wrap;html=1;" vertex="1" parent="1">
          <mxGeometry x="-1310" y="-150" width="120" height="60" as="geometry" />
        </mxCell>
        <mxCell id="zCBPnrUUQAufrPVJ40XC-115" value="Кнопка Предзаказ" style="rounded=1;whiteSpace=wrap;html=1;" vertex="1" parent="1">
          <mxGeometry x="-1310" y="-70" width="120" height="60" as="geometry" />
        </mxCell>
        <mxCell id="zCBPnrUUQAufrPVJ40XC-116" value="Кнопка Подробнее" style="rounded=1;whiteSpace=wrap;html=1;" vertex="1" parent="1">
          <mxGeometry x="-1310" y="10" width="120" height="60" as="geometry" />
        </mxCell>
        <mxCell id="zCBPnrUUQAufrPVJ40XC-117" value="Текст &quot;Новое поколение самокатов&quot;" style="rounded=1;whiteSpace=wrap;html=1;" vertex="1" parent="1">
          <mxGeometry x="-1310" y="90" width="120" height="60" as="geometry" />
        </mxCell>
        <mxCell id="zCBPnrUUQAufrPVJ40XC-118" value="" style="endArrow=classic;html=1;rounded=0;entryX=0;entryY=0.5;entryDx=0;entryDy=0;exitX=1;exitY=0.5;exitDx=0;exitDy=0;" edge="1" parent="1" source="zCBPnrUUQAufrPVJ40XC-2" target="zCBPnrUUQAufrPVJ40XC-114">
          <mxGeometry width="50" height="50" relative="1" as="geometry">
            <mxPoint x="-1240" y="240" as="sourcePoint" />
            <mxPoint x="-1190" y="190" as="targetPoint" />
          </mxGeometry>
        </mxCell>
        <mxCell id="zCBPnrUUQAufrPVJ40XC-119" value="" style="endArrow=classic;html=1;rounded=0;entryX=0;entryY=0.5;entryDx=0;entryDy=0;exitX=1;exitY=0.5;exitDx=0;exitDy=0;" edge="1" parent="1" source="zCBPnrUUQAufrPVJ40XC-2" target="zCBPnrUUQAufrPVJ40XC-115">
          <mxGeometry width="50" height="50" relative="1" as="geometry">
            <mxPoint x="-1240" y="240" as="sourcePoint" />
            <mxPoint x="-1190" y="190" as="targetPoint" />
          </mxGeometry>
        </mxCell>
        <mxCell id="zCBPnrUUQAufrPVJ40XC-120" value="" style="endArrow=classic;html=1;rounded=0;entryX=0;entryY=0.5;entryDx=0;entryDy=0;exitX=1;exitY=0.5;exitDx=0;exitDy=0;" edge="1" parent="1" source="zCBPnrUUQAufrPVJ40XC-2" target="zCBPnrUUQAufrPVJ40XC-116">
          <mxGeometry width="50" height="50" relative="1" as="geometry">
            <mxPoint x="-1240" y="240" as="sourcePoint" />
            <mxPoint x="-1190" y="190" as="targetPoint" />
          </mxGeometry>
        </mxCell>
        <mxCell id="zCBPnrUUQAufrPVJ40XC-121" value="" style="endArrow=classic;html=1;rounded=0;entryX=0;entryY=0.5;entryDx=0;entryDy=0;exitX=1;exitY=0.5;exitDx=0;exitDy=0;" edge="1" parent="1" source="zCBPnrUUQAufrPVJ40XC-2" target="zCBPnrUUQAufrPVJ40XC-117">
          <mxGeometry width="50" height="50" relative="1" as="geometry">
            <mxPoint x="-1240" y="240" as="sourcePoint" />
            <mxPoint x="-1190" y="190" as="targetPoint" />
          </mxGeometry>
        </mxCell>
        <mxCell id="zCBPnrUUQAufrPVJ40XC-122" value="Введены корректные данные" style="rounded=1;whiteSpace=wrap;html=1;" vertex="1" parent="1">
          <mxGeometry x="-1080" y="1460" width="140" height="60" as="geometry" />
        </mxCell>
        <mxCell id="zCBPnrUUQAufrPVJ40XC-123" value="Введены некорректные данные" style="rounded=1;whiteSpace=wrap;html=1;" vertex="1" parent="1">
          <mxGeometry x="-1080" y="1560" width="140" height="60" as="geometry" />
        </mxCell>
        <mxCell id="zCBPnrUUQAufrPVJ40XC-124" value="" style="endArrow=classic;html=1;rounded=0;entryX=0;entryY=0.5;entryDx=0;entryDy=0;exitX=1;exitY=0.5;exitDx=0;exitDy=0;" edge="1" parent="1" source="zCBPnrUUQAufrPVJ40XC-12" target="zCBPnrUUQAufrPVJ40XC-122">
          <mxGeometry width="50" height="50" relative="1" as="geometry">
            <mxPoint x="-1240" y="1420" as="sourcePoint" />
            <mxPoint x="-1190" y="1370" as="targetPoint" />
          </mxGeometry>
        </mxCell>
        <mxCell id="zCBPnrUUQAufrPVJ40XC-125" value="" style="endArrow=classic;html=1;rounded=0;entryX=0;entryY=0.5;entryDx=0;entryDy=0;exitX=1;exitY=0.5;exitDx=0;exitDy=0;" edge="1" parent="1" source="zCBPnrUUQAufrPVJ40XC-12" target="zCBPnrUUQAufrPVJ40XC-123">
          <mxGeometry width="50" height="50" relative="1" as="geometry">
            <mxPoint x="-1240" y="1420" as="sourcePoint" />
            <mxPoint x="-1190" y="1370" as="targetPoint" />
          </mxGeometry>
        </mxCell>
      </root>
    </mxGraphModel>
  </diagram>
</mxfile>
